<svg xmlns="http://www.w3.org/2000/svg" version="1.1" xmlns:xlink="http://www.w3.org/1999/xlink" xmlns:svgjs="http://svgjs.dev/svgjs" width="1500" height="935" viewBox="0 0 1500 935"><g transform="matrix(1,0,0,1,-0.9090909090909918,0.38232793522280417)"><svg viewBox="0 0 396 247" data-background-color="#d2d6d9" preserveAspectRatio="xMidYMid meet" height="935" width="1500" xmlns="http://www.w3.org/2000/svg" xmlns:xlink="http://www.w3.org/1999/xlink"><g id="tight-bounds" transform="matrix(1,0,0,1,0.2400000000000091,-0.09999999999999432)"><svg viewBox="0 0 395.52 247.2" height="247.2" width="395.52"><g><svg></svg></g><g><svg viewBox="0 0 395.52 247.2" height="247.2" width="395.52"><mask id="314393f3-1137-4005-80f0-004266b360a0"><rect width="395.52" height="247.2" fill="white"></rect><g transform="matrix(1,0,0,1,0,38.1227668932427)" id="clone"><svg viewBox="0 0 395.52 170.9544662135146" height="170.9544662135146" width="395.52"><g><svg viewBox="0 0 395.52 170.9544662135146" height="170.9544662135146" width="395.52"><g><svg viewBox="0 0 395.52 170.9544662135146" height="170.9544662135146" width="395.52"><g><svg viewBox="0 0 395.52 170.9544662135146" height="170.9544662135146" width="395.52"><g id="SvgjsG1002"><svg viewBox="0 0 395.52 170.9544662135146" height="170.9544662135146" width="395.52" id="SvgjsSvg1001"><g><svg viewBox="0 0 395.52 170.9544662135146" height="170.9544662135146" width="395.52"><g transform="matrix(1,0,0,1,0,0)"><svg width="395.52" viewBox="-3 -39.5 110.9 48.51" height="170.9544662135146" data-palette-color="#ff460b"><path d="M34.45 0.39L34.45 0.39Q33.2 0.39 32.4 0.16 31.59-0.07 31.09-0.46 30.59-0.85 30.35-1.33 30.1-1.81 30-2.29L30-2.29Q28.47-1.17 26.46-0.39 24.46 0.39 21.95 0.39L21.95 0.39Q19.7 0.39 17.79-0.24 15.87-0.88 14.44-2.21 13.01-3.54 12.21-5.63 11.4-7.71 11.4-10.64L11.4-10.64Q11.4-12.79 11.47-14.5 11.55-16.21 11.66-17.71 11.77-19.21 11.9-20.61 12.04-22 12.15-23.51 12.26-25.02 12.33-26.76 12.4-28.49 12.4-30.69L12.4-30.69Q12.4-31.37 12.27-31.99 12.13-32.62 11.83-33.09 11.52-33.57 10.99-33.86 10.45-34.16 9.64-34.16L9.64-34.16Q8.86-34.16 7.69-33.78 6.52-33.4 5.43-32.68 4.35-31.96 3.58-30.9 2.81-29.83 2.81-28.49L2.81-28.49Q2.81-27.71 3.02-27.25 3.22-26.78 3.49-26.55 3.76-26.32 4.04-26.26 4.32-26.2 4.44-26.2L4.44-26.2Q5.05-26.2 5.44-26.4 5.83-26.61 6.15-26.84 6.47-27.08 6.75-27.28 7.03-27.49 7.4-27.49L7.4-27.49Q7.69-27.49 8.02-27.36 8.35-27.22 8.63-26.93 8.91-26.64 9.11-26.16 9.3-25.68 9.3-25L9.3-25Q9.3-24.02 8.92-23.32 8.54-22.61 7.95-22.13 7.35-21.66 6.58-21.42 5.81-21.19 5.05-21.19L5.05-21.19Q3.88-21.19 2.94-21.59 2-22 1.34-22.71 0.68-23.41 0.34-24.37 0-25.32 0-26.39L0-26.39Q0-28.08 0.56-29.48 1.12-30.88 2.1-32.01 3.08-33.13 4.36-33.97 5.64-34.81 7.1-35.38 8.57-35.94 10.11-36.22 11.65-36.5 13.11-36.5L13.11-36.5Q14.79-36.5 15.98-36.15 17.16-35.79 17.98-35.23 18.8-34.67 19.27-33.98 19.75-33.3 20.01-32.65 20.26-32.01 20.34-31.48 20.41-30.96 20.41-30.69L20.41-30.69Q20.41-28.71 20.34-27.06 20.26-25.42 20.15-23.9 20.04-22.39 19.91-20.94 19.78-19.48 19.67-17.91 19.56-16.33 19.48-14.56 19.41-12.79 19.41-10.64L19.41-10.64Q19.41-7.98 19.93-6.36 20.46-4.74 21.24-3.86 22.02-2.98 22.91-2.69 23.8-2.39 24.51-2.39L24.51-2.39Q25.85-2.39 27.23-2.83 28.61-3.27 29.91-4.1L29.91-4.1 29.91-32.4Q29.91-33.11 29.6-33.53 29.3-33.96 28.66-33.96L28.66-33.96Q27.98-33.96 27.39-33.72 26.81-33.47 26.34-33.25L26.34-33.25 25.95-34.16Q26.56-34.47 27.44-34.88 28.32-35.28 29.32-35.64 30.32-36.01 31.37-36.25 32.42-36.5 33.35-36.5L33.35-36.5Q35.01-36.5 35.93-36.07 36.84-35.64 37.28-35.02 37.72-34.4 37.81-33.69 37.89-32.98 37.89-32.45L37.89-32.45 37.89-3.71Q37.89-3 38.21-2.58 38.53-2.15 39.16-2.15L39.16-2.15Q39.82-2.15 40.41-2.38 40.99-2.61 41.46-2.86L41.46-2.86 41.85-1.95Q41.24-1.64 40.36-1.23 39.48-0.83 38.48-0.46 37.48-0.1 36.43 0.15 35.38 0.39 34.45 0.39ZM52.54 3.54L52.54 3.54Q53.51 3.54 54.47 3.19 55.42 2.83 56.16 2.01 56.91 1.2 57.37-0.12 57.83-1.44 57.83-3.34L57.83-3.34Q57.83-5.4 56.82-7.32 55.81-9.25 54.28-11.12 52.76-12.99 50.99-14.83 49.22-16.67 47.69-18.59 46.16-20.51 45.15-22.55 44.14-24.58 44.14-26.81L44.14-26.81Q44.14-29.03 44.96-30.82 45.77-32.62 47.18-33.87 48.58-35.13 50.45-35.82 52.32-36.5 54.44-36.5L54.44-36.5Q56.71-36.5 58.48-36.02 60.25-35.55 61.48-34.73 62.72-33.91 63.35-32.8 63.99-31.69 63.99-30.44L63.99-30.44Q63.99-29.86 63.82-29.24 63.64-28.61 63.28-28.1 62.91-27.59 62.35-27.25 61.79-26.9 61.03-26.9L61.03-26.9Q60.13-26.9 59.7-27.45 59.27-28 59.07-28.81 58.86-29.61 58.71-30.58 58.57-31.54 58.25-32.35 57.93-33.15 57.3-33.7 56.66-34.25 55.44-34.25L55.44-34.25Q54.78-34.25 54.14-33.96 53.49-33.67 52.96-33.07 52.44-32.47 52.12-31.54 51.8-30.62 51.8-29.35L51.8-29.35Q51.8-27.88 52.41-26.49 53.02-25.1 54.03-23.74 55.03-22.39 56.31-21.03 57.59-19.68 58.92-18.3 60.25-16.92 61.53-15.47 62.81-14.01 63.82-12.45 64.82-10.89 65.43-9.18 66.04-7.47 66.04-5.59L66.04-5.59Q66.04-2.83 64.98-0.67 63.91 1.49 62.09 2.97 60.28 4.44 57.83 5.22 55.39 6.01 52.63 6.01L52.63 6.01Q50.14 6.01 48.23 5.38 46.31 4.76 44.99 3.74 43.67 2.71 43 1.4 42.33 0.1 42.33-1.29L42.33-1.29Q42.33-1.88 42.51-2.55 42.7-3.22 43.05-3.78 43.41-4.35 43.94-4.72 44.48-5.1 45.19-5.1L45.19-5.1Q45.92-5.1 46.37-4.74 46.82-4.37 47.09-3.76 47.36-3.15 47.53-2.37 47.7-1.59 47.9-0.78 48.09 0.02 48.39 0.81 48.68 1.59 49.19 2.2 49.7 2.81 50.51 3.17 51.32 3.54 52.54 3.54ZM92.6-3.54L90.64-10.3 81.44-10.3Q80.41-7.08 79.23-4.71 78.05-2.34 76.61-0.78 75.17 0.78 73.44 1.54 71.72 2.29 69.6 2.29L69.6 2.29Q68.43 2.29 67.34 2.09 66.25 1.88 65.42 1.51 64.59 1.15 64.09 0.65 63.59 0.15 63.59-0.44L63.59-0.44Q63.59-0.88 63.73-1.33 63.86-1.78 64.11-2.16 64.35-2.54 64.7-2.77 65.06-3 65.5-3L65.5-3Q65.89-3 66.18-2.47 66.47-1.93 66.93-1.28 67.38-0.63 68.09-0.1 68.79 0.44 70.04 0.44L70.04 0.44Q71.31 0.44 72.46-0.17 73.6-0.78 74.67-2.09 75.73-3.39 76.7-5.42 77.68-7.45 78.61-10.3L78.61-10.3 72.85-10.3 72.85-12.45 79.24-12.45Q80.05-15.19 80.82-17.97 81.59-20.75 82.27-23.32 82.95-25.88 83.49-28.11 84.03-30.35 84.39-32.01L84.39-32.01Q83.91-33.37 83.06-33.84 82.22-34.3 80.81-34.3L80.81-34.3Q79.49-34.3 78.08-33.9 76.68-33.5 75.53-32.75 74.38-32.01 73.64-30.92 72.9-29.83 72.9-28.49L72.9-28.49Q72.9-27.71 73.1-27.25 73.31-26.78 73.59-26.55 73.87-26.32 74.14-26.26 74.41-26.2 74.56-26.2L74.56-26.2Q75.14-26.2 75.54-26.4 75.95-26.61 76.25-26.84 76.56-27.08 76.85-27.28 77.14-27.49 77.51-27.49L77.51-27.49Q77.78-27.49 78.11-27.36 78.44-27.22 78.72-26.93 79-26.64 79.19-26.16 79.39-25.68 79.39-25L79.39-25Q79.39-24.02 79.01-23.32 78.63-22.61 78.03-22.13 77.44-21.66 76.67-21.42 75.9-21.19 75.14-21.19L75.14-21.19Q73.97-21.19 73.03-21.62 72.09-22.05 71.43-22.78 70.77-23.51 70.43-24.49 70.09-25.46 70.09-26.54L70.09-26.54Q70.09-28.15 70.62-29.5 71.16-30.86 72.11-31.97 73.07-33.08 74.36-33.92 75.65-34.77 77.16-35.34 78.66-35.91 80.29-36.21 81.93-36.5 83.59-36.5L83.59-36.5Q85.93-36.5 87.56-36.12 89.18-35.74 90.28-35 91.38-34.25 92.05-33.12 92.72-31.98 93.16-30.49L93.16-30.49 98.41-12.45 103.71-12.45 103.71-10.3 98.99-10.3 100.9-3.91Q101-3.54 101.09-3.22 101.19-2.91 101.33-2.67 101.46-2.44 101.67-2.29 101.87-2.15 102.19-2.15L102.19-2.15Q102.88-2.15 103.46-2.38 104.05-2.61 104.49-2.86L104.49-2.86 104.9-1.95Q104.46-1.64 103.79-1.23 103.12-0.83 102.25-0.46 101.39-0.1 100.34 0.15 99.29 0.39 98.09 0.39L98.09 0.39Q96.43 0.39 95.42-0.02 94.4-0.44 93.83-1.05 93.26-1.66 93-2.34 92.74-3.03 92.6-3.54L92.6-3.54ZM90.06-12.45L85.91-26.81Q84.91-22.73 83.97-19.14 83.03-15.55 82.1-12.45L82.1-12.45 90.06-12.45Z" opacity="1" transform="matrix(1,0,0,1,0,0)" fill="black" class="wordmark-text-0" id="SvgjsPath1000" stroke-width="5" stroke="black" stroke-linejoin="round"></path></svg></g></svg></g></svg></g></svg></g></svg></g></svg></g></svg></g></mask><g mask="url(#314393f3-1137-4005-80f0-004266b360a0)"><g><path d="M288.392 247.201v0c-5.584 0-10.163-0.514-13.737-1.541-3.619-1.028-6.545-2.412-8.779-4.155-2.234-1.742-3.887-3.686-4.958-5.83-1.117-2.144-1.899-4.289-2.346-6.433v0c-6.835 5.003-14.742 9.247-23.722 12.732-8.935 3.485-19.009 5.227-30.221 5.227v0c-10.052 0-19.344-1.407-27.877-4.221-8.577-2.859-16.06-7.259-22.448-13.202-6.388-5.942-11.369-13.581-14.944-22.917-3.619-9.292-5.428-20.483-5.428-33.573v0c0-9.605 0.156-18.227 0.469-25.866 0.357-7.639 0.782-14.809 1.274-21.51 0.491-6.701 1.028-13.179 1.608-19.433 0.625-6.21 1.184-12.687 1.675-19.433 0.491-6.746 0.893-14.005 1.206-21.779 0.313-7.729 0.469-16.507 0.469-26.335v0c0-3.038-0.29-5.942-0.871-8.711-0.625-2.814-1.608-5.272-2.948-7.372-1.385-2.144-3.261-3.864-5.629-5.159-2.412-1.34-5.428-2.01-9.047-2.011v0c-3.485 0-7.84 0.849-13.067 2.547-5.227 1.698-10.275 4.155-15.144 7.371-4.825 3.217-8.957 7.192-12.397 11.928-3.44 4.78-5.16 10.163-5.16 16.149v0c0 3.485 0.469 6.254 1.407 8.31 0.893 2.1 1.943 3.663 3.15 4.69 1.206 1.028 2.435 1.675 3.685 1.944 1.251 0.268 2.144 0.402 2.681 0.402v0c2.725 0 4.959-0.447 6.701-1.34 1.742-0.938 3.328-1.921 4.758-2.949 1.43-1.072 2.77-2.055 4.02-2.948 1.251-0.938 2.703-1.407 4.356-1.408v0c1.296 0 2.68 0.29 4.155 0.872 1.474 0.625 2.837 1.586 4.087 2.881 1.251 1.296 2.323 3.015 3.217 5.16 0.849 2.144 1.273 4.735 1.273 7.773v0c0 4.378-0.849 8.131-2.546 11.258-1.698 3.172-3.864 5.83-6.5 7.974-2.68 2.1-5.741 3.686-9.181 4.758-3.44 1.028-6.857 1.541-10.252 1.541v0c-5.227 0-9.94-0.893-14.14-2.68-4.199-1.832-7.773-4.333-10.721-7.505-2.948-3.127-5.182-6.835-6.701-11.124-1.519-4.244-2.278-8.756-2.279-13.536v0c0-7.55 1.251-14.452 3.753-20.707 2.502-6.254 5.942-11.906 10.319-16.953 4.378-5.003 9.426-9.381 15.145-13.134 5.718-3.753 11.839-6.902 18.361-9.449 6.567-2.502 13.29-4.378 20.17-5.629 6.88-1.251 13.581-1.876 20.103-1.876v0c7.505 0 13.916 0.782 19.232 2.345 5.272 1.608 9.739 3.663 13.402 6.165 3.663 2.502 6.545 5.294 8.645 8.377 2.144 3.038 3.797 6.009 4.959 8.912 1.117 2.859 1.854 5.473 2.211 7.84 0.313 2.323 0.469 4.088 0.469 5.294v0c0 8.845-0.156 16.954-0.469 24.325-0.357 7.327-0.782 14.385-1.273 21.175-0.491 6.746-1.028 13.357-1.609 19.835-0.581 6.522-1.117 13.29-1.608 20.305-0.491 7.058-0.916 14.541-1.273 22.448-0.313 7.907-0.469 16.663-0.469 26.268v0c0 11.883 1.162 21.443 3.484 28.681 2.368 7.237 5.294 12.821 8.779 16.753 3.485 3.931 7.215 6.545 11.191 7.84 3.976 1.34 7.55 2.01 10.721 2.01v0c5.986 0 12.062-0.983 18.227-2.948 6.165-1.966 12.151-4.802 17.959-8.511v0-189.64c0-3.172-0.692-5.696-2.077-7.572-1.34-1.921-3.44-2.881-6.299-2.881v0c-3.038 0-5.875 0.536-8.511 1.608-2.591 1.117-4.936 2.167-7.036 3.149v0l-2.613-6.098c2.725-1.385 6.053-2.993 9.984-4.824 3.931-1.787 8.131-3.485 12.598-5.093 4.467-1.653 9.046-3.015 13.738-4.088 4.691-1.117 9.113-1.675 13.268-1.675v0c7.416 0 13.179 0.96 17.289 2.881 4.065 1.921 7.081 4.266 9.046 7.036 1.966 2.77 3.15 5.741 3.552 8.913 0.357 3.172 0.536 5.942 0.536 8.309v0 192.589c0 3.172 0.715 5.696 2.144 7.572 1.43 1.921 3.552 2.881 6.366 2.881v0c2.948 0 5.741-0.514 8.376-1.541 2.591-1.028 4.936-2.1 7.036-3.216v0l2.614 6.098c-2.725 1.385-6.053 2.993-9.985 4.824-3.931 1.787-8.131 3.507-12.598 5.16-4.467 1.608-9.046 2.971-13.737 4.088-4.691 1.072-9.113 1.608-13.268 1.608z" fill="#ff460b" fill-rule="nonzero" stroke="none" stroke-width="1" stroke-linecap="butt" stroke-linejoin="miter" stroke-miterlimit="10" stroke-dasharray="" stroke-dashoffset="0" font-family="none" font-weight="none" font-size="none" text-anchor="none" style="mix-blend-mode: normal" data-fill-palette-color="tertiary"></path></g></g><g transform="matrix(1,0,0,1,0,38.1227668932427)"><svg viewBox="0 0 395.52 170.9544662135146" height="170.9544662135146" width="395.52"><g><svg viewBox="0 0 395.52 170.9544662135146" height="170.9544662135146" width="395.52"><g><svg viewBox="0 0 395.52 170.9544662135146" height="170.9544662135146" width="395.52"><g><svg viewBox="0 0 395.52 170.9544662135146" height="170.9544662135146" width="395.52"><g id="textblocktransform"><svg viewBox="0 0 395.52 170.9544662135146" height="170.9544662135146" width="395.52" id="textblock"><g><svg viewBox="0 0 395.52 170.9544662135146" height="170.9544662135146" width="395.52"><g transform="matrix(1,0,0,1,0,0)"><svg width="395.52" viewBox="-3 -39.5 110.9 48.51" height="170.9544662135146" data-palette-color="#ff460b"><path d="M34.45 0.39L34.45 0.39Q33.2 0.39 32.4 0.16 31.59-0.07 31.09-0.46 30.59-0.85 30.35-1.33 30.1-1.81 30-2.29L30-2.29Q28.47-1.17 26.46-0.39 24.46 0.39 21.95 0.39L21.95 0.39Q19.7 0.39 17.79-0.24 15.87-0.88 14.44-2.21 13.01-3.54 12.21-5.63 11.4-7.71 11.4-10.64L11.4-10.64Q11.4-12.79 11.47-14.5 11.55-16.21 11.66-17.71 11.77-19.21 11.9-20.61 12.04-22 12.15-23.51 12.26-25.02 12.33-26.76 12.4-28.49 12.4-30.69L12.4-30.69Q12.4-31.37 12.27-31.99 12.13-32.62 11.83-33.09 11.52-33.57 10.99-33.86 10.45-34.16 9.64-34.16L9.64-34.16Q8.86-34.16 7.69-33.78 6.52-33.4 5.43-32.68 4.35-31.96 3.58-30.9 2.81-29.83 2.81-28.49L2.81-28.49Q2.81-27.71 3.02-27.25 3.22-26.78 3.49-26.55 3.76-26.32 4.04-26.26 4.32-26.2 4.44-26.2L4.44-26.2Q5.05-26.2 5.44-26.4 5.83-26.61 6.15-26.84 6.47-27.08 6.75-27.28 7.03-27.49 7.4-27.49L7.4-27.49Q7.69-27.49 8.02-27.36 8.35-27.22 8.63-26.93 8.91-26.64 9.11-26.16 9.3-25.68 9.3-25L9.3-25Q9.3-24.02 8.92-23.32 8.54-22.61 7.95-22.13 7.35-21.66 6.58-21.42 5.81-21.19 5.05-21.19L5.05-21.19Q3.88-21.19 2.94-21.59 2-22 1.34-22.71 0.68-23.41 0.34-24.37 0-25.32 0-26.39L0-26.39Q0-28.08 0.56-29.48 1.12-30.88 2.1-32.01 3.08-33.13 4.36-33.97 5.64-34.81 7.1-35.38 8.57-35.94 10.11-36.22 11.65-36.5 13.11-36.5L13.11-36.5Q14.79-36.5 15.98-36.15 17.16-35.79 17.98-35.23 18.8-34.67 19.27-33.98 19.75-33.3 20.01-32.65 20.26-32.01 20.34-31.48 20.41-30.96 20.41-30.69L20.41-30.69Q20.41-28.71 20.34-27.06 20.26-25.42 20.15-23.9 20.04-22.39 19.91-20.94 19.78-19.48 19.67-17.91 19.56-16.33 19.48-14.56 19.41-12.79 19.41-10.64L19.41-10.64Q19.41-7.98 19.93-6.36 20.46-4.74 21.24-3.86 22.02-2.98 22.91-2.69 23.8-2.39 24.51-2.39L24.51-2.39Q25.85-2.39 27.23-2.83 28.61-3.27 29.91-4.1L29.91-4.1 29.91-32.4Q29.91-33.11 29.6-33.53 29.3-33.96 28.66-33.96L28.66-33.96Q27.98-33.96 27.39-33.72 26.81-33.47 26.34-33.25L26.34-33.25 25.95-34.16Q26.56-34.47 27.44-34.88 28.32-35.28 29.32-35.64 30.32-36.01 31.37-36.25 32.42-36.5 33.35-36.5L33.35-36.5Q35.01-36.5 35.93-36.07 36.84-35.64 37.28-35.02 37.72-34.4 37.81-33.69 37.89-32.98 37.89-32.45L37.89-32.45 37.89-3.71Q37.89-3 38.21-2.58 38.53-2.15 39.16-2.15L39.16-2.15Q39.82-2.15 40.41-2.38 40.99-2.61 41.46-2.86L41.46-2.86 41.85-1.95Q41.24-1.64 40.36-1.23 39.48-0.83 38.48-0.46 37.48-0.1 36.43 0.15 35.38 0.39 34.45 0.39ZM52.54 3.54L52.54 3.54Q53.51 3.54 54.47 3.19 55.42 2.83 56.16 2.01 56.91 1.2 57.37-0.12 57.83-1.44 57.83-3.34L57.83-3.34Q57.83-5.4 56.82-7.32 55.81-9.25 54.28-11.12 52.76-12.99 50.99-14.83 49.22-16.67 47.69-18.59 46.16-20.51 45.15-22.55 44.14-24.58 44.14-26.81L44.14-26.81Q44.14-29.03 44.96-30.82 45.77-32.62 47.18-33.87 48.58-35.13 50.45-35.82 52.32-36.5 54.44-36.5L54.44-36.5Q56.71-36.5 58.48-36.02 60.25-35.55 61.48-34.73 62.72-33.91 63.35-32.8 63.99-31.69 63.99-30.44L63.99-30.44Q63.99-29.86 63.82-29.24 63.64-28.61 63.28-28.1 62.91-27.59 62.35-27.25 61.79-26.9 61.03-26.9L61.03-26.9Q60.13-26.9 59.7-27.45 59.27-28 59.07-28.81 58.86-29.61 58.71-30.58 58.57-31.54 58.25-32.35 57.93-33.15 57.3-33.7 56.66-34.25 55.44-34.25L55.44-34.25Q54.78-34.25 54.14-33.96 53.49-33.67 52.96-33.07 52.44-32.47 52.12-31.54 51.8-30.62 51.8-29.35L51.8-29.35Q51.8-27.88 52.41-26.49 53.02-25.1 54.03-23.74 55.03-22.39 56.31-21.03 57.59-19.68 58.92-18.3 60.25-16.92 61.53-15.47 62.81-14.01 63.82-12.45 64.82-10.89 65.43-9.18 66.04-7.47 66.04-5.59L66.04-5.59Q66.04-2.83 64.98-0.67 63.91 1.49 62.09 2.97 60.28 4.44 57.83 5.22 55.39 6.01 52.63 6.01L52.63 6.01Q50.14 6.01 48.23 5.38 46.31 4.76 44.99 3.74 43.67 2.71 43 1.4 42.33 0.1 42.33-1.29L42.33-1.29Q42.33-1.88 42.51-2.55 42.7-3.22 43.05-3.78 43.41-4.35 43.94-4.72 44.48-5.1 45.19-5.1L45.19-5.1Q45.92-5.1 46.37-4.74 46.82-4.37 47.09-3.76 47.36-3.15 47.53-2.37 47.7-1.59 47.9-0.78 48.09 0.02 48.39 0.81 48.68 1.59 49.19 2.2 49.7 2.81 50.51 3.17 51.32 3.54 52.54 3.54ZM92.6-3.54L90.64-10.3 81.44-10.3Q80.41-7.08 79.23-4.71 78.05-2.34 76.61-0.78 75.17 0.78 73.44 1.54 71.72 2.29 69.6 2.29L69.6 2.29Q68.43 2.29 67.34 2.09 66.25 1.88 65.42 1.51 64.59 1.15 64.09 0.65 63.59 0.15 63.59-0.44L63.59-0.44Q63.59-0.88 63.73-1.33 63.86-1.78 64.11-2.16 64.35-2.54 64.7-2.77 65.06-3 65.5-3L65.5-3Q65.89-3 66.18-2.47 66.47-1.93 66.93-1.28 67.38-0.63 68.09-0.1 68.79 0.44 70.04 0.44L70.04 0.44Q71.31 0.44 72.46-0.17 73.6-0.78 74.67-2.09 75.73-3.39 76.7-5.42 77.68-7.45 78.61-10.3L78.61-10.3 72.85-10.3 72.85-12.45 79.24-12.45Q80.05-15.19 80.82-17.97 81.59-20.75 82.27-23.32 82.95-25.88 83.49-28.11 84.03-30.35 84.39-32.01L84.39-32.01Q83.91-33.37 83.06-33.84 82.22-34.3 80.81-34.3L80.81-34.3Q79.49-34.3 78.08-33.9 76.68-33.5 75.53-32.75 74.38-32.01 73.64-30.92 72.9-29.83 72.9-28.49L72.9-28.49Q72.9-27.71 73.1-27.25 73.31-26.78 73.59-26.55 73.87-26.32 74.14-26.26 74.41-26.2 74.56-26.2L74.56-26.2Q75.14-26.2 75.54-26.4 75.95-26.61 76.25-26.84 76.56-27.08 76.85-27.28 77.14-27.49 77.51-27.49L77.51-27.49Q77.78-27.49 78.11-27.36 78.44-27.22 78.72-26.93 79-26.64 79.19-26.16 79.39-25.68 79.39-25L79.39-25Q79.39-24.02 79.01-23.32 78.63-22.61 78.03-22.13 77.44-21.66 76.67-21.42 75.9-21.19 75.14-21.19L75.14-21.19Q73.97-21.19 73.03-21.62 72.09-22.05 71.43-22.78 70.77-23.51 70.43-24.49 70.09-25.46 70.09-26.54L70.09-26.54Q70.09-28.15 70.62-29.5 71.16-30.86 72.11-31.97 73.07-33.08 74.36-33.92 75.65-34.77 77.16-35.34 78.66-35.91 80.29-36.21 81.93-36.5 83.59-36.5L83.59-36.5Q85.93-36.5 87.56-36.12 89.18-35.74 90.28-35 91.38-34.25 92.05-33.12 92.72-31.98 93.16-30.49L93.16-30.49 98.41-12.45 103.71-12.45 103.71-10.3 98.99-10.3 100.9-3.91Q101-3.54 101.09-3.22 101.19-2.91 101.33-2.67 101.46-2.44 101.67-2.29 101.87-2.15 102.19-2.15L102.19-2.15Q102.88-2.15 103.46-2.38 104.05-2.61 104.49-2.86L104.49-2.86 104.9-1.95Q104.46-1.64 103.79-1.23 103.12-0.83 102.25-0.46 101.39-0.1 100.34 0.15 99.29 0.39 98.09 0.39L98.09 0.39Q96.43 0.39 95.42-0.02 94.4-0.44 93.83-1.05 93.26-1.66 93-2.34 92.74-3.03 92.6-3.54L92.6-3.54ZM90.06-12.45L85.91-26.81Q84.91-22.73 83.97-19.14 83.03-15.55 82.1-12.45L82.1-12.45 90.06-12.45Z" opacity="1" transform="matrix(1,0,0,1,0,0)" fill="#ff460b" class="wordmark-text-0" data-fill-palette-color="primary" id="text-0"></path></svg></g></svg></g></svg></g></svg></g></svg></g></svg></g></svg></g></svg></g><defs></defs></svg><rect width="395.52" height="247.2" fill="none" stroke="none" visibility="hidden"></rect></g></svg></g></svg>